<svg width="42" height="42" viewBox="0 0 42 42" fill="none" xmlns="http://www.w3.org/2000/svg">
<path d="M7.01884 5.01977C9.02213 5.01977 10.6527 6.65572 10.6527 8.66561C10.6527 9.36673 10.4664 10.0211 10.0937 10.582L14.7059 14.2278C15.8706 12.9191 17.5944 12.0777 19.5045 12.0777C21.2282 12.0777 22.7657 12.7789 23.9304 13.8539L30.8254 7.45033C30.3129 6.74921 29.9868 5.9546 29.9868 5.01977C29.9868 2.77618 31.8038 1 33.9934 1C36.1831 1 38 2.82292 38 5.01977C38 7.21662 36.1831 9.03954 33.9934 9.03954C32.9685 9.03954 32.0367 8.66561 31.3379 8.01123L24.4894 14.4148C25.4212 15.5366 25.9337 16.9389 25.9337 18.5281C25.9337 20.8184 24.7689 22.7815 22.9986 23.9501L27.1449 31.2885C27.7506 31.0081 28.4494 30.8211 29.1482 30.8211C31.8038 30.8211 33.9934 32.9712 33.9934 35.6822C33.9934 38.3465 31.8504 40.5433 29.1482 40.5433C26.4461 40.5433 24.3497 38.3932 24.3497 35.7289C24.3497 34.0462 25.1882 32.5973 26.4461 31.7092L22.2998 24.3708C21.4612 24.7914 20.4828 25.0251 19.5045 25.0251C18.1534 25.0251 16.8955 24.6045 15.8706 23.9033L12.4697 28.2503C12.8424 28.671 13.1219 29.2319 13.1219 29.8863C13.1219 31.2418 12.0504 32.3168 10.6993 32.3168C9.34825 32.3168 8.27672 31.2418 8.27672 29.8863C8.27672 28.5308 9.34825 27.4557 10.6993 27.4557C11.1186 27.4557 11.4913 27.5492 11.864 27.7361L15.3115 23.3424C14.0071 22.1739 13.1685 20.4445 13.1685 18.5281C13.1685 17.1726 13.5878 15.9105 14.3332 14.8355L9.72095 11.1896C9.06872 11.844 8.13695 12.2647 7.1586 12.2647C5.15531 12.2647 3.52472 10.6288 3.52472 8.61887C3.52472 6.60898 5.01554 5.01977 7.01884 5.01977Z" fill="#F14A16"/>
</svg>
